<?xml version="1.0" standalone="no"?>
<!DOCTYPE svg PUBLIC "-//W3C//DTD SVG 20010904//EN"
 "http://www.w3.org/TR/2001/REC-SVG-20010904/DTD/svg10.dtd">
<svg version="1.0" xmlns="http://www.w3.org/2000/svg"
 width="447.000000pt" height="663.000000pt" viewBox="0 0 447.000000 663.000000"
 preserveAspectRatio="xMidYMid meet">

<g transform="translate(0.000000,663.000000) scale(0.100000,-0.100000)"
fill="#000000" stroke="none">
<path d="M0 3315 l0 -3315 2235 0 2235 0 0 3315 0 3315 -2235 0 -2235 0 0
-3315z m555 2892 c0 -57 6 -82 25 -121 49 -96 147 -156 258 -156 64 0 65 -10
3 -57 -68 -53 -150 -66 -230 -38 -176 62 -225 291 -88 416 17 16 32 29 32 29
0 0 0 -33 0 -73z m271 -45 l-20 -22 -22 21 -21 20 20 23 20 22 22 -20 21 -21
-20 -23z m2129 -1287 c0 -22 -31 -33 -47 -17 -17 17 -1 44 24 40 15 -2 23 -10
23 -23z m-2292 3 c52 -27 64 -94 25 -135 l-22 -24 27 -50 28 -49 -33 0 c-29 0
-36 6 -57 45 -15 29 -31 45 -42 45 -16 0 -19 -8 -19 -45 0 -43 -1 -45 -30 -45
l-30 0 0 135 0 135 66 0 c36 0 75 -5 87 -12z m1377 -123 l0 -135 -30 0 -30 0
0 135 0 135 30 0 30 0 0 -135z m-440 94 c0 -12 8 -23 20 -26 11 -3 20 -13 20
-23 0 -10 -9 -20 -20 -23 -16 -4 -20 -14 -20 -45 0 -49 8 -72 25 -72 7 0 15
-9 18 -19 10 -40 -71 -33 -92 8 -6 11 -11 45 -11 75 0 31 -4 56 -10 56 -5 0
-10 9 -10 20 0 11 5 20 10 20 6 0 10 11 10 25 0 21 5 25 30 25 24 0 30 -4 30
-21z m-695 -54 c17 -16 25 -35 25 -60 l0 -35 -66 0 c-57 0 -65 -2 -62 -17 4
-21 45 -30 61 -14 11 11 67 16 67 5 0 -37 -63 -68 -117 -58 -48 9 -73 46 -73
106 0 67 30 98 95 98 35 0 52 -6 70 -25z m115 8 c1 -17 1 -17 11 0 13 22 84
24 97 1 8 -14 10 -14 21 0 17 21 75 21 95 0 12 -12 16 -36 16 -100 l0 -84 -30
0 -30 0 0 74 c0 56 -4 75 -15 80 -28 11 -45 -22 -45 -90 0 -62 -1 -64 -25 -64
-24 0 -25 2 -25 64 0 68 -17 101 -45 90 -11 -5 -15 -24 -15 -80 l0 -74 -30 0
-30 0 0 100 0 100 25 0 c17 0 25 -6 25 -17z m447 -7 c24 -21 28 -32 28 -75 0
-42 -5 -55 -28 -78 -23 -23 -36 -28 -74 -27 -64 1 -93 35 -93 105 0 40 5 55
25 74 34 35 102 35 142 1z m348 18 c20 -8 45 -56 45 -89 0 -24 -2 -25 -66 -25
-57 0 -65 -2 -62 -17 4 -21 45 -30 61 -14 11 11 67 16 67 5 0 -37 -63 -68
-117 -58 -48 9 -73 46 -73 106 0 64 31 98 89 98 22 0 47 -3 56 -6z m429 -25
c15 -18 26 -43 26 -60 l0 -29 -70 0 c-68 0 -70 -1 -60 -20 11 -21 54 -28 65
-10 7 12 65 14 65 2 0 -5 -12 -19 -26 -33 -19 -18 -37 -24 -69 -24 -76 0 -120
65 -95 140 15 45 44 65 96 65 35 0 47 -5 68 -31z m216 9 c17 -18 20 -35 20
-100 l0 -78 -47 -1 c-27 0 -61 0 -77 -1 -30 -1 -66 31 -66 57 0 27 36 56 79
63 25 4 46 13 49 20 6 18 -28 27 -49 14 -20 -13 -69 -16 -69 -5 0 4 10 17 22
30 30 32 108 33 138 1z m180 -3 c0 -18 -6 -24 -27 -27 -27 -3 -28 -5 -31 -75
l-3 -73 -29 0 -30 0 0 99 0 100 60 0 c56 -1 60 -2 60 -24z m90 13 c0 -9 3 -9
12 0 7 7 29 12 49 12 55 0 69 -25 69 -122 l0 -78 -30 0 -30 0 0 70 c0 56 -3
71 -18 79 -11 6 -24 6 -35 0 -14 -8 -17 -24 -17 -79 l0 -70 -30 0 -30 0 0 100
0 100 30 0 c17 0 30 -5 30 -12z m230 -88 l0 -100 -30 0 -30 0 0 100 0 100 30
0 30 0 0 -100z m100 88 c0 -9 3 -9 12 0 7 7 29 12 49 12 55 0 69 -25 69 -122
l0 -78 -30 0 -30 0 0 70 c0 58 -3 71 -19 80 -34 17 -51 -12 -51 -86 l0 -64
-30 0 -30 0 0 100 0 100 30 0 c17 0 30 -5 30 -12z m291 2 c13 -7 19 -7 19 0 0
5 14 10 30 10 l30 0 0 -105 c0 -57 -5 -115 -11 -128 -14 -31 -48 -47 -98 -47
-40 0 -96 34 -86 51 8 12 52 12 60 -1 9 -14 48 -13 63 2 7 7 12 23 12 37 0 23
-1 23 -18 8 -38 -35 -95 -15 -118 40 -37 88 39 174 117 133z m-1052 -364 c16
-20 3 -46 -24 -46 -13 0 -26 7 -29 16 -7 19 10 44 29 44 7 0 18 -6 24 -14z
m-1049 -141 l0 -135 -30 0 c-17 0 -30 5 -30 12 0 9 -3 9 -12 0 -7 -7 -27 -12
-45 -12 -58 0 -92 54 -80 127 11 65 67 99 113 68 l24 -15 0 45 c0 43 1 45 30
45 l30 0 0 -135z m-582 48 c6 -9 12 -12 12 -7 0 17 49 35 76 28 36 -9 44 -33
44 -123 l0 -81 -30 0 -30 0 0 74 c0 59 -3 75 -16 80 -31 12 -44 -13 -44 -85
l0 -69 -30 0 -30 0 0 75 c0 61 -3 77 -16 82 -28 10 -44 -25 -44 -94 l0 -63
-30 0 -30 0 0 100 0 100 30 0 c17 0 30 -5 30 -11 0 -5 10 -3 23 6 25 18 66 12
85 -12z m301 16 c43 -15 51 -35 51 -123 l0 -76 -30 0 c-17 0 -30 5 -30 12 0 9
-3 9 -12 0 -7 -7 -29 -12 -49 -12 -39 0 -69 26 -69 61 0 26 37 52 83 58 49 7
59 34 15 39 -16 2 -28 -1 -28 -7 0 -6 -13 -11 -30 -11 -16 0 -30 2 -30 4 0 19
18 40 44 52 38 16 45 17 85 3z m489 -25 c12 -14 22 -38 22 -55 l0 -29 -65 0
c-58 0 -65 -2 -65 -20 0 -23 45 -39 63 -21 12 12 67 15 67 4 0 -4 -10 -17 -22
-30 -17 -18 -32 -23 -70 -23 -67 0 -98 30 -98 95 0 58 13 83 53 101 41 18 86
9 115 -22z m271 25 c33 -12 61 -52 61 -89 0 -18 -6 -20 -70 -20 -38 0 -70 -3
-70 -6 0 -35 52 -58 77 -33 6 6 23 9 39 7 l29 -3 -27 -27 c-22 -23 -36 -28
-76 -28 -39 0 -53 5 -73 26 -50 53 -22 164 45 177 11 2 24 5 27 6 3 0 20 -4
38 -10z m220 0 c43 -15 51 -35 51 -123 l0 -76 -30 0 c-17 0 -30 5 -30 12 0 9
-3 9 -12 0 -7 -7 -29 -12 -49 -12 -40 0 -69 26 -69 61 0 24 47 59 79 59 33 0
56 14 47 29 -9 14 -56 15 -56 1 0 -5 -13 -10 -30 -10 -16 0 -30 2 -30 4 0 19
18 40 44 52 38 16 45 17 85 3z m243 -21 c10 -11 15 -24 12 -29 -7 -13 -54 -11
-54 2 0 6 -12 9 -27 7 -36 -4 -35 -21 3 -31 62 -18 79 -32 82 -64 4 -41 -27
-63 -90 -63 -35 0 -54 6 -68 20 -28 28 -25 40 9 40 17 0 33 -4 36 -10 10 -16
55 -12 55 5 0 9 -17 19 -46 26 -79 20 -97 85 -31 115 40 18 97 9 119 -18z
m316 -4 c12 -14 22 -38 22 -55 l0 -29 -66 0 c-55 0 -65 -3 -62 -16 5 -28 35
-41 58 -26 24 14 70 16 70 2 0 -27 -41 -50 -87 -50 -68 1 -103 34 -103 99 0
97 107 145 168 75z m182 5 c0 -17 -4 -28 -10 -24 -5 3 -19 1 -30 -5 -17 -9
-20 -21 -20 -80 l0 -70 -30 0 -30 0 0 100 0 101 40 -3 c22 -1 43 1 46 5 17 17
34 5 34 -24z m-390 -79 l0 -100 -25 0 -25 0 0 100 0 100 25 0 25 0 0 -100z
m455 -70 c0 -18 -6 -26 -23 -28 -13 -2 -25 3 -28 12 -10 26 4 48 28 44 17 -2
23 -10 23 -28z m-467 -640 c6 -78 25 -97 134 -135 62 -22 87 -58 99 -142 11
-77 34 -113 111 -173 60 -48 88 -56 128 -40 45 19 125 8 156 -21 67 -63 73
-161 12 -226 -26 -27 -38 -21 -38 18 0 20 -10 40 -29 60 -27 27 -35 29 -103
29 -106 0 -127 -15 -145 -95 -7 -34 -12 -40 -43 -46 -42 -9 -70 -41 -70 -80
l0 -28 -131 -3 c-181 -4 -170 15 -171 -289 0 -144 -4 -239 -10 -246 -6 -7 -19
-13 -29 -13 -15 0 -19 8 -19 40 0 37 -3 41 -47 64 -81 41 -121 104 -109 174 6
38 5 38 -50 65 -108 53 -201 170 -219 274 l-6 38 -54 0 c-93 0 -150 64 -142
163 6 88 72 140 161 127 92 -13 110 -10 158 23 79 54 116 108 127 185 12 84
37 120 99 142 109 38 132 61 132 129 0 43 6 48 55 44 38 -3 40 -5 43 -38z
m543 -680 c13 -7 19 -21 19 -43 0 -45 24 -75 66 -83 42 -8 54 -28 54 -93 0
-80 -2 -81 -218 -81 -103 0 -192 4 -199 8 -18 11 -24 52 -15 107 7 45 10 50
40 56 42 8 72 36 72 65 0 12 4 34 10 48 9 25 13 26 80 26 39 0 80 -5 91 -10z
m317 -72 c19 -19 14 -46 -10 -59 -18 -10 -24 -8 -40 11 -31 38 15 83 50 48z
m-648 -182 c0 -13 9 -35 21 -50 l20 -26 210 0 c196 0 210 1 229 20 11 11 20
33 20 50 l0 30 124 0 c118 0 126 -1 140 -22 14 -20 16 -98 16 -645 0 -552 -2
-623 -16 -637 -14 -14 -73 -16 -498 -16 -361 0 -485 3 -494 12 -9 9 -12 83
-12 271 0 226 -2 258 -15 253 -13 -4 -15 9 -15 84 0 53 4 90 10 90 6 0 10 30
10 70 0 40 -4 70 -10 70 -6 0 -10 79 -10 217 0 187 2 219 17 235 14 15 32 18
135 18 117 0 118 0 118 -24z m978 -212 c2 -22 -2 -33 -14 -38 -30 -11 -54 3
-54 33 0 35 8 43 40 39 20 -2 26 -9 28 -34z m-1355 -396 c27 -48 28 -98 3
-123 -9 -9 -16 -12 -16 -7 0 5 -11 7 -23 5 -19 -4 -28 3 -45 32 -27 45 -27 61
-2 103 28 45 54 42 83 -10z m77 -69 c0 -17 -4 -28 -10 -24 -5 3 -10 17 -10 31
0 13 5 24 10 24 6 0 10 -14 10 -31z m1249 -341 c0 -31 -3 -37 -8 -24 -7 18 -3
66 5 66 2 0 4 -19 3 -42z"/>
<path d="M570 4800 c0 -40 1 -41 31 -38 64 6 64 70 0 76 -30 3 -31 2 -31 -38z"/>
<path d="M813 4773 c-7 -2 -13 -11 -13 -19 0 -10 12 -14 40 -14 38 0 40 2 30
20 -10 19 -31 24 -57 13z"/>
<path d="M1372 4768 c-7 -7 -12 -28 -12 -48 0 -58 47 -83 71 -39 28 53 -21
125 -59 87z"/>
<path d="M1730 4760 c-10 -18 -8 -20 30 -20 27 0 40 4 40 14 0 30 -55 35 -70
6z"/>
<path d="M2140 4760 c-10 -18 -8 -20 30 -20 27 0 40 4 40 14 0 30 -55 35 -70
6z"/>
<path d="M2380 4701 c-29 -8 -38 -36 -15 -45 23 -9 55 11 55 34 0 21 -2 22
-40 11z"/>
<path d="M3302 4768 c-7 -7 -12 -29 -12 -50 0 -49 30 -68 60 -38 24 24 25 48
4 78 -17 25 -34 28 -52 10z"/>
<path d="M1120 4311 c-21 -39 -2 -101 30 -101 33 0 54 82 28 108 -18 18 -46
14 -58 -7z"/>
<path d="M913 4250 c-30 -12 -30 -40 0 -40 25 0 47 17 47 37 0 15 -15 16 -47
3z"/>
<path d="M1357 4324 c-18 -19 -5 -34 29 -34 28 0 35 3 32 18 -3 17 -48 29 -61
16z"/>
<path d="M1662 4318 c-21 -21 -14 -28 29 -28 33 0 40 3 37 18 -4 21 -48 28
-66 10z"/>
<path d="M1893 4250 c-30 -12 -30 -40 0 -40 25 0 47 17 47 37 0 15 -15 16 -47
3z"/>
<path d="M2412 4318 c-21 -21 -13 -28 28 -28 22 0 40 4 40 8 0 14 -23 32 -40
32 -9 0 -21 -5 -28 -12z"/>
<path d="M1992 3064 c-29 -20 -30 -76 -2 -104 42 -42 120 -10 120 50 0 59 -67
90 -118 54z"/>
<path d="M2390 3060 c-42 -42 -10 -120 50 -120 14 0 36 9 48 20 46 43 15 120
-48 120 -17 0 -39 -9 -50 -20z"/>
<path d="M3107 2804 c-12 -12 -8 -42 6 -47 21 -8 39 8 35 29 -3 19 -29 30 -41
18z"/>
<path d="M2450 2415 l-64 -65 -31 30 c-17 17 -36 30 -43 30 -23 0 -12 -26 28
-65 l40 -39 75 74 c67 67 90 100 67 100 -4 0 -37 -29 -72 -65z"/>
<path d="M2605 2400 c-3 -6 0 -12 7 -15 26 -10 588 0 591 10 3 14 -589 19
-598 5z"/>
<path d="M2443 2208 l-63 -62 -34 33 c-23 22 -36 29 -41 21 -8 -13 61 -90 80
-90 15 0 145 133 145 148 0 25 -27 10 -87 -50z"/>
<path d="M2606 2201 c-17 -27 28 -31 305 -29 261 3 284 4 287 21 3 16 -16 17
-292 17 -162 0 -297 -4 -300 -9z"/>
<path d="M2452 2010 c-30 -33 -60 -60 -67 -60 -6 0 -22 11 -35 25 -25 27 -50
33 -50 12 0 -18 62 -77 81 -77 17 0 149 130 149 148 0 25 -25 10 -78 -48z"/>
<path d="M2605 1990 c-3 -6 0 -12 7 -15 26 -10 588 0 591 10 3 14 -589 19
-598 5z"/>
<path d="M2450 1805 l-64 -65 -31 30 c-17 17 -36 30 -43 30 -23 0 -12 -26 28
-65 l40 -39 75 74 c67 67 90 100 67 100 -4 0 -37 -29 -72 -65z"/>
<path d="M2605 1790 c-3 -6 0 -12 7 -15 26 -10 588 0 591 10 3 14 -589 19
-598 5z"/>
<path d="M2443 1598 l-63 -62 -34 33 c-23 22 -36 29 -41 21 -8 -13 61 -90 80
-90 14 0 145 134 145 149 0 24 -28 8 -87 -51z"/>
<path d="M2607 1594 c-20 -20 31 -24 299 -24 255 0 294 2 294 15 0 13 -39 15
-293 15 -162 0 -297 -3 -300 -6z"/>
<path d="M3427 2434 c-12 -12 -8 -42 6 -47 21 -8 39 8 35 29 -3 19 -29 30 -41
18z"/>
</g>
</svg>
